<svg width="40" height="40" viewBox="0 0 40 40" fill="none" xmlns="http://www.w3.org/2000/svg">
<path d="M2.76074 29.2081C2.76074 28.1795 3.59454 27.3457 4.62309 27.3457H26.4893C27.5178 27.3457 28.3516 28.1795 28.3516 29.2081V29.2081C28.3516 30.2366 27.5178 31.0704 26.4893 31.0704H4.62309C3.59454 31.0704 2.76074 30.2366 2.76074 29.2081V29.2081Z" fill="#5982D5"/>
<path fill-rule="evenodd" clip-rule="evenodd" d="M26.4893 27.5925H4.62309C3.73087 27.5925 3.00759 28.3158 3.00759 29.2081C3.00759 30.1003 3.73087 30.8236 4.62309 30.8236H26.4893C27.3815 30.8236 28.1048 30.1003 28.1048 29.2081C28.1048 28.3158 27.3815 27.5925 26.4893 27.5925ZM4.62309 27.3457C3.59454 27.3457 2.76074 28.1795 2.76074 29.2081C2.76074 30.2366 3.59454 31.0704 4.62309 31.0704H26.4893C27.5178 31.0704 28.3516 30.2366 28.3516 29.2081C28.3516 28.1795 27.5178 27.3457 26.4893 27.3457H4.62309Z" fill="black"/>
<path d="M14.1978 19.3262C14.1978 18.576 14.8059 17.9678 15.5562 17.9678V17.9678C16.3064 17.9678 16.9146 18.576 16.9146 19.3262V28.2216C16.9146 28.9719 16.3064 29.5801 15.5562 29.5801V29.5801C14.8059 29.5801 14.1978 28.9719 14.1978 28.2216V19.3262Z" fill="#2951A3"/>
<path fill-rule="evenodd" clip-rule="evenodd" d="M16.6677 28.2216V19.3262C16.6677 18.7123 16.1701 18.2146 15.5562 18.2146C14.9423 18.2146 14.4446 18.7123 14.4446 19.3262V28.2216C14.4446 28.8356 14.9423 29.3332 15.5562 29.3332C16.1701 29.3332 16.6677 28.8356 16.6677 28.2216ZM15.5562 17.9678C14.8059 17.9678 14.1978 18.576 14.1978 19.3262V28.2216C14.1978 28.9719 14.8059 29.5801 15.5562 29.5801C16.3064 29.5801 16.9146 28.9719 16.9146 28.2216V19.3262C16.9146 18.576 16.3064 17.9678 15.5562 17.9678Z" fill="black"/>
<path d="M0 4.80286C0 3.894 0.736777 3.15723 1.64564 3.15723H29.4665C30.3754 3.15723 31.1122 3.894 31.1122 4.80286V23.5969C31.1122 24.5057 30.3754 25.2425 29.4665 25.2425H1.64564C0.736776 25.2425 0 24.5057 0 23.5969V4.80286Z" fill="#5982D5"/>
<path fill-rule="evenodd" clip-rule="evenodd" d="M29.4665 3.40407H1.64564C0.873106 3.40407 0.246846 4.03033 0.246846 4.80286V23.5969C0.246846 24.3694 0.873105 24.9957 1.64564 24.9957H29.4665C30.2391 24.9957 30.8653 24.3694 30.8653 23.5969V4.80286C30.8653 4.03033 30.2391 3.40407 29.4665 3.40407ZM1.64564 3.15723C0.736777 3.15723 0 3.894 0 4.80286V23.5969C0 24.5057 0.736776 25.2425 1.64564 25.2425H29.4665C30.3754 25.2425 31.1122 24.5057 31.1122 23.5969V4.80286C31.1122 3.894 30.3754 3.15723 29.4665 3.15723H1.64564Z" fill="black"/>
<path d="M0.922119 5.29695C0.922119 4.75164 1.36419 4.30957 1.9095 4.30957H29.2682C29.8135 4.30957 30.2556 4.75164 30.2556 5.29695V21.3008C30.2556 21.8461 29.8135 22.2882 29.2682 22.2882H1.9095C1.36419 22.2882 0.922119 21.8461 0.922119 21.3008V5.29695Z" fill="white"/>
<path fill-rule="evenodd" clip-rule="evenodd" d="M29.2682 4.55642H1.9095C1.50051 4.55642 1.16896 4.88797 1.16896 5.29695V21.3008C1.16896 21.7098 1.50051 22.0413 1.9095 22.0413H29.2682C29.6772 22.0413 30.0088 21.7098 30.0088 21.3008V5.29695C30.0088 4.88797 29.6772 4.55642 29.2682 4.55642ZM1.9095 4.30957C1.36419 4.30957 0.922119 4.75164 0.922119 5.29695V21.3008C0.922119 21.8461 1.36419 22.2882 1.9095 22.2882H29.2682C29.8135 22.2882 30.2556 21.8461 30.2556 21.3008V5.29695C30.2556 4.75164 29.8135 4.30957 29.2682 4.30957H1.9095Z" fill="black"/>
<path d="M2.60889 23.7896C2.60889 23.3465 2.96807 22.9873 3.41114 22.9873H3.49342C3.93649 22.9873 4.29567 23.3465 4.29567 23.7896V23.7896C4.29567 24.2326 3.93649 24.5918 3.49342 24.5918H3.41114C2.96807 24.5918 2.60889 24.2326 2.60889 23.7896V23.7896Z" fill="#F7D379"/>
<path fill-rule="evenodd" clip-rule="evenodd" d="M3.49342 23.2342H3.41114C3.10439 23.2342 2.85573 23.4828 2.85573 23.7896C2.85573 24.0963 3.10439 24.345 3.41114 24.345H3.49342C3.80016 24.345 4.04882 24.0963 4.04882 23.7896C4.04882 23.4828 3.80016 23.2342 3.49342 23.2342ZM3.41114 22.9873C2.96807 22.9873 2.60889 23.3465 2.60889 23.7896C2.60889 24.2326 2.96807 24.5918 3.41114 24.5918H3.49342C3.93649 24.5918 4.29567 24.2326 4.29567 23.7896C4.29567 23.3465 3.93649 22.9873 3.49342 22.9873H3.41114Z" fill="black"/>
<path d="M15.3207 6.07812C13.2613 6.07812 11.5948 7.52388 11.5948 9.31566C11.5948 9.3678 11.5948 9.41994 11.5995 9.47209V9.49105C11.7558 12.1692 15.3207 15.6201 15.3207 15.6201C15.3207 15.6201 18.8856 12.1692 19.0419 9.49105V9.47209C19.0466 9.41994 19.0466 9.3678 19.0466 9.31566C19.0466 7.52388 17.3801 6.07812 15.3207 6.07812ZM17.8962 10.2068C17.8151 10.3089 17.6972 10.375 17.568 10.3909C17.4387 10.4069 17.3084 10.3714 17.205 10.2921L17.0345 10.1594L16.8215 11.8564C16.8114 11.9418 16.7769 12.0225 16.7221 12.0887C16.7025 12.1176 16.6765 12.1417 16.6461 12.1589C16.6157 12.1762 16.5818 12.1862 16.5469 12.1882H15.993C15.7705 12.1882 15.7705 11.9796 15.7705 11.9512L15.8036 11.1501C15.8036 11.0363 15.7326 10.9463 15.6426 10.9463H15.0082C14.9183 10.9463 14.8473 11.0363 14.852 11.1501L14.9041 11.9512C14.9041 11.9512 14.9183 12.1929 14.6768 12.1929H14.1324C14.0969 12.191 14.0622 12.181 14.0311 12.1637C13.9999 12.1465 13.9731 12.1225 13.9525 12.0934C13.8982 12.0263 13.8623 11.9463 13.8483 11.8611L13.6069 10.1642L13.4364 10.2969C13.3504 10.3655 13.2434 10.4023 13.1334 10.4012C13.0297 10.4025 12.9282 10.371 12.8434 10.3111C12.7586 10.2513 12.6948 10.1661 12.6612 10.0679C12.6276 9.96957 12.6259 9.86316 12.6563 9.76384C12.6867 9.66451 12.7476 9.57733 12.8304 9.51475L15.0177 7.81303C15.1035 7.74377 15.2105 7.70601 15.3207 7.70601C15.4309 7.70601 15.5379 7.74377 15.6237 7.81303L17.8109 9.51475C17.9129 9.59593 17.9789 9.71392 17.9948 9.84334C18.0108 9.97276 17.9753 10.1033 17.8962 10.2068Z" fill="#2A53A2"/>
<path d="M6.17871 17.2933H6.6048V17.5967C6.69002 17.3929 6.83205 17.2554 7.08297 17.2696V17.7152H7.05929C6.77523 17.7152 6.6048 17.8859 6.6048 18.2414V18.796H6.17871V17.2933Z" fill="#2A53A2"/>
<path d="M7.22498 18.2699V17.2934H7.65106V18.1324C7.65106 18.3363 7.74575 18.4406 7.90672 18.4406C8.06769 18.4406 8.17184 18.3363 8.17184 18.1324V17.2934H8.59793V18.7961H8.17184V18.5828C8.07715 18.7107 7.94933 18.8245 7.73628 18.8245C7.41435 18.8245 7.22498 18.6112 7.22498 18.2699Z" fill="#2A53A2"/>
<path d="M8.86779 17.2933H9.29388V17.5066C9.38857 17.3834 9.5164 17.2696 9.73417 17.2696C9.95195 17.2696 10.0798 17.3549 10.1555 17.5066C10.2136 17.4316 10.2883 17.3711 10.3738 17.3299C10.4592 17.2888 10.5531 17.2681 10.6479 17.2696C10.9651 17.2696 11.1545 17.4592 11.1545 17.8195V18.796H10.7284V17.9617C10.7284 17.7579 10.6384 17.6536 10.4822 17.6536C10.326 17.6536 10.2218 17.7579 10.2218 17.9617V18.796H9.80045V17.9617C9.80045 17.7579 9.7105 17.6536 9.54954 17.6536C9.38857 17.6536 9.29388 17.7579 9.29388 17.9617V18.796H8.86779V17.2933Z" fill="#2A53A2"/>
<path d="M11.3249 18.3647C11.3249 18.0376 11.5711 17.8859 11.9262 17.8859C12.052 17.8843 12.177 17.9052 12.2955 17.9476V17.9239C12.2955 17.7437 12.1866 17.6489 11.9735 17.6489C11.8307 17.6477 11.689 17.6751 11.5569 17.7295L11.4528 17.4024C11.6356 17.3201 11.8346 17.2796 12.0351 17.2839C12.2671 17.2839 12.4328 17.3456 12.5416 17.4498C12.6505 17.5541 12.7026 17.7295 12.7026 17.9286V18.8008H12.2907V18.6396C12.2334 18.7025 12.163 18.7521 12.0845 18.7849C12.006 18.8176 11.9212 18.8328 11.8362 18.8292C11.5569 18.8292 11.3249 18.6681 11.3249 18.3694M12.3002 18.2746V18.1988C12.215 18.1617 12.1232 18.1424 12.0303 18.1419C11.8457 18.1419 11.7321 18.213 11.7321 18.3457V18.3552C11.7321 18.469 11.8268 18.5353 11.9641 18.5353C12.1014 18.5353 12.3002 18.4263 12.3002 18.2746Z" fill="#2A53A2"/>
<path d="M12.9583 16.7529H13.3796V17.5066C13.479 17.3834 13.6069 17.2696 13.8199 17.2696C14.1418 17.2696 14.3312 17.4782 14.3312 17.8242V18.796H13.9051V17.9617C13.9051 17.7579 13.8104 17.6536 13.6495 17.6536C13.4885 17.6536 13.3796 17.7579 13.3796 17.9617V18.796H12.9583V16.7529Z" fill="#2A53A2"/>
<path d="M14.8946 17.2601L14.5537 17.3407L14.4638 16.99L15.0271 16.8241H15.3207V18.796H14.8946V17.2601Z" fill="#2A53A2"/>
<path d="M15.6047 18.4546L16.2533 17.919C16.4995 17.7199 16.5942 17.6109 16.5942 17.4497C16.5942 17.2885 16.4853 17.1937 16.3291 17.1937C16.1728 17.1937 16.0734 17.2791 15.9314 17.4592L15.6284 17.2127C15.8225 16.952 16.0071 16.8098 16.3575 16.8098C16.7078 16.8098 17.0345 17.0468 17.0345 17.4118C17.0345 17.7436 16.864 17.9048 16.5184 18.175L16.1965 18.4215H17.0534V18.7912H15.6047V18.4546Z" fill="#2A53A2"/>
<path d="M17.2002 18.4926L17.4985 18.2082C17.631 18.3599 17.773 18.4452 17.9719 18.4452C18.1707 18.4452 18.2512 18.3504 18.2512 18.2082V18.1987C18.2512 18.0423 18.1044 17.9522 17.8677 17.9522H17.6878L17.6215 17.6773L18.0855 17.208H17.3186V16.8383H18.6394V17.1606L18.1471 17.6347C18.4122 17.6773 18.6726 17.8195 18.6726 18.1845C18.6726 18.5542 18.4027 18.8244 17.9672 18.8244C17.6121 18.8244 17.3706 18.687 17.2002 18.4879" fill="#2A53A2"/>
<path d="M18.8951 18.5732C18.8951 18.5435 18.901 18.5142 18.9124 18.4868C18.9239 18.4595 18.9407 18.4347 18.9619 18.414C18.9831 18.3932 19.0082 18.3769 19.0357 18.366C19.0633 18.3551 19.0927 18.3498 19.1223 18.3504C19.1515 18.3504 19.1805 18.3562 19.2075 18.3674C19.2345 18.3786 19.259 18.395 19.2797 18.4157C19.3003 18.4363 19.3167 18.4609 19.3279 18.4879C19.3391 18.515 19.3448 18.5439 19.3448 18.5732C19.3448 18.6024 19.3391 18.6314 19.3279 18.6584C19.3167 18.6855 19.3003 18.71 19.2797 18.7307C19.259 18.7514 19.2345 18.7678 19.2075 18.779C19.1805 18.7902 19.1515 18.796 19.1223 18.796C19.0927 18.7966 19.0633 18.7913 19.0357 18.7804C19.0082 18.7695 18.9831 18.7532 18.9619 18.7324C18.9407 18.7117 18.9239 18.6869 18.9124 18.6596C18.901 18.6322 18.8951 18.6028 18.8951 18.5732Z" fill="#2A53A2"/>
<path d="M19.4727 18.0565V18.047C19.4714 17.9437 19.4909 17.8413 19.53 17.7457C19.5692 17.6502 19.6272 17.5636 19.7006 17.491C19.7739 17.4184 19.8612 17.3614 19.957 17.3234C20.0529 17.2853 20.1555 17.267 20.2586 17.2696C20.5379 17.2696 20.7178 17.3644 20.8551 17.5208L20.5947 17.8005C20.5 17.701 20.4053 17.6346 20.2538 17.6346C20.1023 17.6346 19.8893 17.8242 19.8893 18.0422C19.8893 18.2745 20.0408 18.4594 20.2728 18.4594C20.4148 18.4594 20.5095 18.3978 20.6137 18.2982L20.8646 18.5494C20.7178 18.7106 20.5521 18.8244 20.2538 18.8244C20.1514 18.8269 20.0494 18.8088 19.9541 18.771C19.8588 18.7332 19.7721 18.6765 19.6992 18.6044C19.6262 18.5322 19.5686 18.4461 19.5297 18.3512C19.4908 18.2562 19.4714 18.1544 19.4727 18.0517" fill="#2A53A2"/>
<path d="M20.9166 18.0566V18.0471C20.9166 17.6158 21.2622 17.2697 21.7262 17.2697C22.1902 17.2697 22.5358 17.611 22.5358 18.0424C22.5358 18.4737 22.1902 18.8245 21.7215 18.8245C21.2528 18.8245 20.9166 18.4832 20.9166 18.0519M22.1191 18.0519V18.0471C22.1204 17.9938 22.1111 17.9408 22.0917 17.8911C22.0724 17.8414 22.0433 17.7961 22.0063 17.7578C21.9694 17.7194 21.9251 17.6888 21.8762 17.6677C21.8273 17.6465 21.7747 17.6353 21.7215 17.6347C21.48 17.6347 21.3333 17.8243 21.3333 18.0424C21.3333 18.2652 21.4942 18.4595 21.7262 18.4595C21.9582 18.4595 22.1191 18.2699 22.1191 18.0519Z" fill="#2A53A2"/>
<path d="M22.7346 17.2933H23.156V17.5066C23.2554 17.3834 23.3832 17.2696 23.601 17.2696C23.8188 17.2696 23.9419 17.3549 24.0224 17.5066C24.0804 17.4316 24.1551 17.3711 24.2406 17.3299C24.3261 17.2888 24.4199 17.2681 24.5147 17.2696C24.8319 17.2696 25.0213 17.4592 25.0213 17.8195V18.796H24.5952V17.9617C24.5952 17.7579 24.5053 17.6536 24.349 17.6536C24.1928 17.6536 24.0886 17.7579 24.0886 17.9617V18.796H23.6626V17.9617C23.6626 17.7579 23.5726 17.6536 23.4164 17.6536C23.2601 17.6536 23.156 17.7579 23.156 17.9617V18.796H22.7346V17.2933Z" fill="#2A53A2"/>
<path d="M26.5334 15.0255C26.5334 14.1167 27.2702 13.3799 28.1791 13.3799H37.9427C38.8516 13.3799 39.5883 14.1167 39.5883 15.0255V34.8844C39.5883 35.7933 38.8516 36.53 37.9427 36.53H28.1791C27.2702 36.53 26.5334 35.7933 26.5334 34.8844V15.0255Z" fill="#2951A3"/>
<path fill-rule="evenodd" clip-rule="evenodd" d="M37.9427 13.6267H28.1791C27.4066 13.6267 26.7803 14.253 26.7803 15.0255V34.8844C26.7803 35.6569 27.4066 36.2832 28.1791 36.2832H37.9427C38.7152 36.2832 39.3415 35.6569 39.3415 34.8844V15.0255C39.3415 14.253 38.7152 13.6267 37.9427 13.6267ZM28.1791 13.3799C27.2702 13.3799 26.5334 14.1167 26.5334 15.0255V34.8844C26.5334 35.7933 27.2702 36.53 28.1791 36.53H37.9427C38.8516 36.53 39.5883 35.7933 39.5883 34.8844V15.0255C39.5883 14.1167 38.8516 13.3799 37.9427 13.3799H28.1791Z" fill="black"/>
<path d="M27.3848 16.8448C27.3848 16.1177 27.9742 15.5283 28.7013 15.5283H37.4203C38.1474 15.5283 38.7369 16.1177 38.7369 16.8448V32.7806C38.7369 33.5077 38.1474 34.0971 37.4203 34.0971H28.7013C27.9742 34.0971 27.3848 33.5077 27.3848 32.7806V16.8448Z" fill="white"/>
<path fill-rule="evenodd" clip-rule="evenodd" d="M37.4203 15.7752H28.7013C28.1105 15.7752 27.6316 16.2541 27.6316 16.8448V32.7806C27.6316 33.3713 28.1105 33.8502 28.7013 33.8502H37.4203C38.0111 33.8502 38.49 33.3713 38.49 32.7806V16.8448C38.49 16.2541 38.0111 15.7752 37.4203 15.7752ZM28.7013 15.5283C27.9742 15.5283 27.3848 16.1177 27.3848 16.8448V32.7806C27.3848 33.5077 27.9742 34.0971 28.7013 34.0971H37.4203C38.1474 34.0971 38.7369 33.5077 38.7369 32.7806V16.8448C38.7369 16.1177 38.1474 15.5283 37.4203 15.5283H28.7013Z" fill="black"/>
<path d="M30.2319 14.5673C30.2319 14.3123 30.4387 14.1055 30.6938 14.1055H34.1089C34.3639 14.1055 34.5707 14.3123 34.5707 14.5673V14.5673C34.5707 14.8224 34.3639 15.0292 34.1089 15.0292H30.6938C30.4387 15.0292 30.2319 14.8224 30.2319 14.5673V14.5673Z" fill="#F7D379"/>
<path fill-rule="evenodd" clip-rule="evenodd" d="M34.1089 14.3523H30.6938C30.575 14.3523 30.4788 14.4486 30.4788 14.5673C30.4788 14.6861 30.575 14.7824 30.6938 14.7824H34.1089C34.2276 14.7824 34.3239 14.6861 34.3239 14.5673C34.3239 14.4486 34.2276 14.3523 34.1089 14.3523ZM30.6938 14.1055C30.4387 14.1055 30.2319 14.3123 30.2319 14.5673C30.2319 14.8224 30.4387 15.0292 30.6938 15.0292H34.1089C34.3639 15.0292 34.5707 14.8224 34.5707 14.5673C34.5707 14.3123 34.3639 14.1055 34.1089 14.1055H30.6938Z" fill="black"/>
<path d="M34.9346 14.5673C34.9346 14.3123 35.1414 14.1055 35.3964 14.1055V14.1055C35.6515 14.1055 35.8583 14.3123 35.8583 14.5673V14.5673C35.8583 14.8224 35.6515 15.0292 35.3964 15.0292V15.0292C35.1414 15.0292 34.9346 14.8224 34.9346 14.5673V14.5673Z" fill="#F7D379"/>
<path fill-rule="evenodd" clip-rule="evenodd" d="M35.1814 14.5673C35.1814 14.6861 35.2777 14.7824 35.3964 14.7824C35.5152 14.7824 35.6115 14.6861 35.6115 14.5673C35.6115 14.4486 35.5152 14.3523 35.3964 14.3523C35.2777 14.3523 35.1814 14.4486 35.1814 14.5673ZM35.3964 14.1055C35.1414 14.1055 34.9346 14.3123 34.9346 14.5673C34.9346 14.8224 35.1414 15.0292 35.3964 15.0292C35.6515 15.0292 35.8583 14.8224 35.8583 14.5673C35.8583 14.3123 35.6515 14.1055 35.3964 14.1055Z" fill="black"/>
<path d="M32.8518 20C31.7588 20 30.8744 20.7936 30.8744 21.7772C30.8744 21.8059 30.8744 21.8345 30.8769 21.8631V21.8735C30.9598 23.3437 32.8518 25.2381 32.8518 25.2381C32.8518 25.2381 34.7437 23.3437 34.8266 21.8735V21.8631C34.8292 21.8345 34.8292 21.8059 34.8292 21.7772C34.8292 20.7936 33.9447 20 32.8518 20ZM34.2186 22.2664C34.1756 22.3225 34.113 22.3588 34.0444 22.3675C33.9758 22.3763 33.9066 22.3568 33.8518 22.3133L33.7613 22.2404L33.6482 23.172C33.6429 23.2189 33.6246 23.2631 33.5955 23.2995C33.5851 23.3154 33.5713 23.3286 33.5552 23.3381C33.539 23.3475 33.521 23.353 33.5025 23.3541H33.2086C33.0905 23.3541 33.0905 23.2396 33.0905 23.224L33.108 22.7843C33.108 22.7218 33.0704 22.6724 33.0226 22.6724H32.6859C32.6382 22.6724 32.6005 22.7218 32.603 22.7843L32.6307 23.224C32.6307 23.224 32.6382 23.3567 32.5101 23.3567H32.2211C32.2023 23.3556 32.1839 23.3502 32.1673 23.3407C32.1508 23.3312 32.1366 23.318 32.1256 23.3021C32.0968 23.2653 32.0778 23.2213 32.0704 23.1746L31.9422 22.243L31.8518 22.3159C31.8061 22.3535 31.7493 22.3738 31.691 22.3731C31.6359 22.3739 31.582 22.3566 31.537 22.3237C31.492 22.2909 31.4582 22.2441 31.4404 22.1902C31.4225 22.1362 31.4216 22.0778 31.4377 22.0233C31.4539 21.9687 31.4862 21.9209 31.5302 21.8865L32.691 20.9524C32.7365 20.9144 32.7933 20.8936 32.8518 20.8936C32.9103 20.8936 32.967 20.9144 33.0126 20.9524L34.1734 21.8865C34.2275 21.9311 34.2625 21.9959 34.271 22.0669C34.2794 22.138 34.2606 22.2096 34.2186 22.2664Z" fill="#2A53A2"/>
<path d="M28 26.1566H28.2261V26.3231C28.2714 26.2112 28.3467 26.1358 28.4799 26.1436V26.3882H28.4673C28.3166 26.3882 28.2261 26.4819 28.2261 26.677V26.9815H28V26.1566Z" fill="#2A53A2"/>
<path d="M28.5553 26.6927V26.1566H28.7814V26.6172C28.7814 26.7291 28.8316 26.7864 28.9171 26.7864C29.0025 26.7864 29.0578 26.7291 29.0578 26.6172V26.1566H29.2839V26.9815H29.0578V26.8644C29.0075 26.9347 28.9397 26.9971 28.8266 26.9971C28.6558 26.9971 28.5553 26.88 28.5553 26.6927Z" fill="#2A53A2"/>
<path d="M29.4271 26.1566H29.6533V26.2737C29.7035 26.206 29.7714 26.1436 29.8869 26.1436C30.0025 26.1436 30.0703 26.1904 30.1105 26.2737C30.1414 26.2325 30.181 26.1993 30.2264 26.1767C30.2717 26.1541 30.3215 26.1428 30.3719 26.1436C30.5402 26.1436 30.6407 26.2477 30.6407 26.4454V26.9815H30.4146V26.5235C30.4146 26.4116 30.3668 26.3543 30.2839 26.3543C30.201 26.3543 30.1457 26.4116 30.1457 26.5235V26.9815H29.9221V26.5235C29.9221 26.4116 29.8744 26.3543 29.7889 26.3543C29.7035 26.3543 29.6533 26.4116 29.6533 26.5235V26.9815H29.4271V26.1566Z" fill="#2A53A2"/>
<path d="M30.7312 26.7447C30.7312 26.5652 30.8618 26.4819 31.0503 26.4819C31.117 26.481 31.1834 26.4925 31.2462 26.5157V26.5027C31.2462 26.4038 31.1884 26.3518 31.0754 26.3518C30.9996 26.3511 30.9244 26.3661 30.8543 26.396L30.799 26.2165C30.8961 26.1713 31.0016 26.1491 31.108 26.1514C31.2312 26.1514 31.3191 26.1853 31.3769 26.2425C31.4347 26.2998 31.4623 26.396 31.4623 26.5053V26.9841H31.2437V26.8956C31.2133 26.9302 31.1759 26.9574 31.1343 26.9754C31.0926 26.9934 31.0476 27.0017 31.0025 26.9997C30.8543 26.9997 30.7312 26.9112 30.7312 26.7473M31.2487 26.6953V26.6536C31.2035 26.6333 31.1548 26.6227 31.1055 26.6224C31.0075 26.6224 30.9472 26.6614 30.9472 26.7343V26.7395C30.9472 26.802 30.9975 26.8384 31.0704 26.8384C31.1432 26.8384 31.2487 26.7785 31.2487 26.6953Z" fill="#2A53A2"/>
<path d="M31.598 25.8599H31.8216V26.2737C31.8744 26.206 31.9422 26.1436 32.0553 26.1436C32.2261 26.1436 32.3266 26.2581 32.3266 26.448V26.9815H32.1005V26.5235C32.1005 26.4116 32.0503 26.3543 31.9648 26.3543C31.8794 26.3543 31.8216 26.4116 31.8216 26.5235V26.9815H31.598V25.8599Z" fill="#2A53A2"/>
<path d="M32.6256 26.1384L32.4447 26.1826L32.397 25.9901L32.696 25.899H32.8518V26.9815H32.6256V26.1384Z" fill="#2A53A2"/>
<path d="M33.0025 26.7941L33.3467 26.5C33.4774 26.3908 33.5276 26.3309 33.5276 26.2424C33.5276 26.154 33.4698 26.1019 33.3869 26.1019C33.304 26.1019 33.2512 26.1488 33.1759 26.2476L33.0151 26.1123C33.1181 25.9692 33.2161 25.8912 33.402 25.8912C33.5879 25.8912 33.7613 26.0213 33.7613 26.2216C33.7613 26.4038 33.6708 26.4922 33.4874 26.6406L33.3166 26.7759H33.7713V26.9788H33.0025V26.7941Z" fill="#2A53A2"/>
<path d="M33.8492 26.8149L34.0075 26.6588C34.0779 26.7421 34.1533 26.7889 34.2588 26.7889C34.3643 26.7889 34.407 26.7369 34.407 26.6588V26.6536C34.407 26.5677 34.3291 26.5183 34.2035 26.5183H34.108L34.0729 26.3674L34.3191 26.1098H33.9121V25.9068H34.6131V26.0837L34.3518 26.344C34.4925 26.3674 34.6306 26.4454 34.6306 26.6458C34.6306 26.8488 34.4874 26.9971 34.2563 26.9971C34.0678 26.9971 33.9397 26.9216 33.8492 26.8123" fill="#2A53A2"/>
<path d="M34.7487 26.8592C34.7487 26.8429 34.7519 26.8268 34.758 26.8118C34.764 26.7967 34.773 26.7831 34.7842 26.7718C34.7954 26.7604 34.8088 26.7514 34.8234 26.7454C34.838 26.7394 34.8536 26.7365 34.8693 26.7369C34.8848 26.7369 34.9002 26.74 34.9145 26.7462C34.9289 26.7523 34.9419 26.7613 34.9528 26.7727C34.9638 26.784 34.9725 26.7975 34.9784 26.8124C34.9844 26.8272 34.9874 26.8431 34.9874 26.8592C34.9874 26.8752 34.9844 26.8911 34.9784 26.906C34.9725 26.9208 34.9638 26.9343 34.9528 26.9456C34.9419 26.957 34.9289 26.966 34.9145 26.9722C34.9002 26.9783 34.8848 26.9815 34.8693 26.9815C34.8536 26.9818 34.838 26.9789 34.8234 26.9729C34.8088 26.9669 34.7954 26.958 34.7842 26.9466C34.773 26.9352 34.764 26.9216 34.758 26.9066C34.7519 26.8916 34.7487 26.8754 34.7487 26.8592Z" fill="#2A53A2"/>
<path d="M35.0553 26.5755V26.5703C35.0546 26.5136 35.0649 26.4574 35.0857 26.4049C35.1065 26.3525 35.1373 26.3049 35.1762 26.2651C35.2151 26.2253 35.2614 26.194 35.3123 26.1731C35.3632 26.1522 35.4176 26.1422 35.4724 26.1436C35.6206 26.1436 35.7161 26.1956 35.7889 26.2815L35.6508 26.435C35.6005 26.3804 35.5503 26.3439 35.4698 26.3439C35.3894 26.3439 35.2764 26.448 35.2764 26.5677C35.2764 26.6952 35.3568 26.7967 35.4799 26.7967C35.5553 26.7967 35.6055 26.7629 35.6608 26.7082L35.794 26.8461C35.7161 26.9346 35.6281 26.9971 35.4698 26.9971C35.4155 26.9985 35.3614 26.9885 35.3108 26.9677C35.2602 26.947 35.2142 26.9159 35.1755 26.8763C35.1368 26.8367 35.1062 26.7894 35.0855 26.7373C35.0649 26.6852 35.0546 26.6293 35.0553 26.5729" fill="#2A53A2"/>
<path d="M35.8216 26.5756V26.5704C35.8216 26.3336 36.005 26.1436 36.2512 26.1436C36.4975 26.1436 36.6809 26.331 36.6809 26.5678C36.6809 26.8046 36.4975 26.9971 36.2487 26.9971C36 26.9971 35.8216 26.8098 35.8216 26.573M36.4598 26.573V26.5704C36.4605 26.5411 36.4555 26.512 36.4452 26.4847C36.435 26.4575 36.4196 26.4326 36.3999 26.4115C36.3803 26.3905 36.3568 26.3737 36.3309 26.3621C36.3049 26.3505 36.277 26.3443 36.2487 26.344C36.1206 26.344 36.0427 26.4481 36.0427 26.5678C36.0427 26.6901 36.1281 26.7968 36.2512 26.7968C36.3744 26.7968 36.4598 26.6927 36.4598 26.573Z" fill="#2A53A2"/>
<path d="M36.7864 26.1566H37.0101V26.2737C37.0628 26.206 37.1307 26.1436 37.2462 26.1436C37.3618 26.1436 37.4271 26.1904 37.4698 26.2737C37.5007 26.2325 37.5403 26.1993 37.5857 26.1767C37.631 26.1541 37.6808 26.1428 37.7312 26.1436C37.8995 26.1436 38 26.2477 38 26.4454V26.9815H37.7739V26.5235C37.7739 26.4116 37.7261 26.3543 37.6432 26.3543C37.5603 26.3543 37.505 26.4116 37.505 26.5235V26.9815H37.2789V26.5235C37.2789 26.4116 37.2312 26.3543 37.1482 26.3543C37.0653 26.3543 37.0101 26.4116 37.0101 26.5235V26.9815H36.7864V26.1566Z" fill="#2A53A2"/>
</svg>
