<svg width="40" height="40" viewBox="0 0 40 40" fill="none" xmlns="http://www.w3.org/2000/svg">
<path d="M8.59375 8.08594C8.59375 6.16589 10.1503 4.60938 12.0703 4.60938H27.9297C29.8497 4.60938 31.4062 6.16589 31.4062 8.08594V27.6172C31.4062 29.5372 29.8497 31.0938 27.9297 31.0938H12.0703C10.1503 31.0938 8.59375 29.5372 8.59375 27.6172V8.08594Z" fill="#5982D5"/>
<path fill-rule="evenodd" clip-rule="evenodd" d="M27.9297 4.84375H12.0703C10.2797 4.84375 8.82812 6.29533 8.82812 8.08594V27.6172C8.82812 29.4078 10.2797 30.8594 12.0703 30.8594H27.9297C29.7203 30.8594 31.1719 29.4078 31.1719 27.6172V8.08594C31.1719 6.29533 29.7203 4.84375 27.9297 4.84375ZM12.0703 4.60938C10.1503 4.60938 8.59375 6.16589 8.59375 8.08594V27.6172C8.59375 29.5372 10.1503 31.0938 12.0703 31.0938H27.9297C29.8497 31.0938 31.4062 29.5372 31.4062 27.6172V8.08594C31.4062 6.16589 29.8497 4.60938 27.9297 4.60938H12.0703Z" fill="black"/>
<path d="M12.8837 25.6173L6.85815 27.3984L8.82999 33.5474L9.58346 33.4018L10.954 32.9967L11.5453 33.2587L16.1079 35.4814C16.5884 35.7162 17.6829 36.2029 18.217 36.2711C18.7511 36.3394 19.6343 36.1691 20.0091 36.0754C23.2038 34.5401 29.6978 31.4231 30.1158 31.2378C30.5338 31.0526 30.8141 30.7317 30.902 30.5943L31.1446 30.1115L31.1048 29.4552L30.9581 28.959L30.5209 28.523L29.9865 28.1928L29.2217 28.2133L22.7709 30.1202L16.2334 26.6055L14.2381 25.6794L12.8837 25.6173Z" fill="white"/>
<path fill-rule="evenodd" clip-rule="evenodd" d="M12.6736 25.7973L6.90628 27.5021L6.83984 27.2773L12.6071 25.5725C13.4317 25.3287 14.3194 25.4225 15.0748 25.8333L22.7348 29.9979L29.0761 28.1233C29.8984 27.8803 30.7731 28.2875 31.1163 29.0733C31.4829 29.9128 31.1185 30.8919 30.2923 31.2875L20.0723 36.1799C19.1835 36.6054 18.1494 36.6036 17.2621 36.1749L11.2284 33.2602C11.0448 33.1715 10.8346 33.1544 10.6391 33.2122L8.75854 33.7681L8.6921 33.5433L10.5726 32.9874C10.8241 32.9131 11.0942 32.9351 11.3304 33.0492L17.3641 35.9639C18.1872 36.3615 19.1466 36.3632 19.9711 35.9685L30.1911 31.0761C30.9034 30.735 31.2176 29.8909 30.9015 29.1672C30.6056 28.4897 29.8515 28.1385 29.1426 28.3481L22.8008 30.2228C21.918 31.7917 19.9358 32.3657 18.349 31.5029L14.801 29.574L14.913 29.3681L18.4609 31.297C19.9139 32.087 21.7238 31.5803 22.5606 30.1699L14.9629 26.0392C14.2621 25.6581 13.4386 25.5711 12.6736 25.7973Z" fill="black"/>
<path d="M5.89844 34.9326C5.63955 34.9326 5.42969 34.7228 5.42969 34.4639L5.42969 25.9395C5.42969 25.6807 5.63955 25.4708 5.89844 25.4708L8.65697 25.4708C8.91585 25.4708 9.12572 25.6807 9.12572 25.9395L9.12572 34.4639C9.12572 34.7228 8.91585 34.9326 8.65697 34.9326L5.89844 34.9326Z" fill="#2951A3"/>
<path fill-rule="evenodd" clip-rule="evenodd" d="M5.19531 34.4639L5.19531 25.9395C5.19531 25.5512 5.51011 25.2364 5.89844 25.2364L8.65697 25.2364C9.04529 25.2364 9.36009 25.5512 9.36009 25.9395L9.36009 34.4639C9.36009 34.8522 9.04529 35.167 8.65697 35.167L5.89844 35.167C5.51011 35.167 5.19531 34.8522 5.19531 34.4639ZM5.42969 34.4639C5.42969 34.7228 5.63955 34.9326 5.89844 34.9326L8.65697 34.9326C8.91585 34.9326 9.12571 34.7228 9.12571 34.4639L9.12571 25.9395C9.12571 25.6807 8.91585 25.4708 8.65697 25.4708L5.89844 25.4708C5.63955 25.4708 5.42969 25.6807 5.42969 25.9395L5.42969 34.4639Z" fill="black"/>
<path d="M7.86118 33.3304C7.86118 33.7081 7.55499 34.0143 7.17729 34.0143C6.79959 34.0143 6.49341 33.7081 6.49341 33.3304C6.49341 32.9527 6.79959 32.6465 7.17729 32.6465C7.55499 32.6465 7.86118 32.9527 7.86118 33.3304Z" fill="#F7D279"/>
<path fill-rule="evenodd" clip-rule="evenodd" d="M7.17729 33.7799C7.42555 33.7799 7.6268 33.5786 7.6268 33.3304C7.6268 33.0821 7.42555 32.8809 7.17729 32.8809C6.92904 32.8809 6.72778 33.0821 6.72778 33.3304C6.72778 33.5786 6.92904 33.7799 7.17729 33.7799ZM7.17729 34.0143C7.55499 34.0143 7.86118 33.7081 7.86118 33.3304C7.86118 32.9527 7.55499 32.6465 7.17729 32.6465C6.79959 32.6465 6.49341 32.9527 6.49341 33.3304C6.49341 33.7081 6.79959 34.0143 7.17729 34.0143Z" fill="black"/>
<path d="M11.607 12.0309C11.6009 11.6831 11.8846 11.3994 12.2315 11.3725C13.967 11.2376 17.0525 10.4953 19.5465 8.27789C19.8036 8.0493 20.1963 8.0493 20.4534 8.27789C22.9473 10.4953 26.0328 11.2376 27.7684 11.3725C28.1152 11.3994 28.399 11.6831 28.3928 12.0309C28.2388 20.7471 24.8904 24.369 20.1311 25.4398C20.0451 25.4591 19.9548 25.4591 19.8688 25.4398C15.1095 24.369 11.761 20.7471 11.607 12.0309Z" fill="#F7D379"/>
<path fill-rule="evenodd" clip-rule="evenodd" d="M19.7022 8.45304C17.1589 10.7144 14.019 11.4687 12.2496 11.6061C12.0137 11.6245 11.8376 11.8153 11.8414 12.0268C11.9179 16.3585 12.7881 19.3926 14.2046 21.4704C15.6168 23.5419 17.588 24.6864 19.9202 25.2111C19.9724 25.2228 20.0275 25.2228 20.0797 25.2111C22.4118 24.6864 24.383 23.5419 25.7953 21.4704C27.2117 19.3926 28.0819 16.3585 28.1585 12.0268C28.1622 11.8153 27.9862 11.6245 27.7502 11.6061C25.9808 11.4687 22.8409 10.7144 20.2976 8.45304C20.1293 8.30341 19.8705 8.30341 19.7022 8.45304ZM12.2315 11.3725C11.8846 11.3994 11.6009 11.6831 11.607 12.0309C11.761 20.7471 15.1095 24.369 19.8688 25.4398C19.9548 25.4591 20.0451 25.4591 20.1311 25.4398C24.8904 24.369 28.2388 20.7471 28.3928 12.0309C28.399 11.6831 28.1152 11.3994 27.7684 11.3725C26.0328 11.2376 22.9473 10.4953 20.4534 8.27789C20.1963 8.0493 19.8036 8.0493 19.5465 8.27789C17.0525 10.4953 13.967 11.2376 12.2315 11.3725Z" fill="black"/>
<path fill-rule="evenodd" clip-rule="evenodd" d="M24.4595 13.9689C24.7976 14.2769 24.8173 14.7956 24.5035 15.1275L20.0887 19.7968C19.503 20.4162 18.5105 20.4344 17.9018 19.8369L15.5181 17.4971C15.1919 17.177 15.1919 16.6579 15.5181 16.3377C15.8442 16.0176 16.3731 16.0176 16.6992 16.3377L18.9715 18.5681L23.2791 14.0121C23.5929 13.6803 24.1214 13.6609 24.4595 13.9689Z" fill="white"/>
<path fill-rule="evenodd" clip-rule="evenodd" d="M24.6173 13.7956C25.0522 14.1917 25.0779 14.8611 24.6738 15.2885L20.259 19.9579C19.5831 20.6726 18.4398 20.6934 17.7376 20.0041L15.3539 17.6644C14.9341 17.2524 14.9341 16.5825 15.3539 16.1705C15.7712 15.7608 16.4461 15.7608 16.8634 16.1705L18.9653 18.2335L23.1088 13.8511C23.5106 13.4262 24.185 13.4018 24.6173 13.7956ZM18.9715 18.5681L16.6992 16.3377C16.3731 16.0176 15.8442 16.0176 15.5181 16.3377C15.1919 16.6579 15.1919 17.177 15.5181 17.4971L17.9018 19.8369C18.5105 20.4344 19.503 20.4162 20.0887 19.7968L24.5035 15.1275C24.8173 14.7956 24.7976 14.2769 24.4595 13.9689C24.1214 13.6609 23.5929 13.6803 23.2791 14.0121L18.9715 18.5681Z" fill="black"/>
</svg>
