<svg width="40" height="40" viewBox="0 0 40 40" fill="none" xmlns="http://www.w3.org/2000/svg">
<g clip-path="url(#clip0_1739_220784)">
<path d="M36.6357 38.3334C36.6357 39.1897 35.9416 39.8838 35.0854 39.8838H4.87646C4.02021 39.8838 3.32608 39.1897 3.32608 38.3334V1.70571C3.32608 0.849461 4.02021 0.155332 4.87646 0.155332H35.0854C35.9416 0.155332 36.6357 0.849461 36.6357 1.70571V38.3334Z" fill="white"/>
<path fill-rule="evenodd" clip-rule="evenodd" d="M36.752 38.3333C36.752 39.2538 36.0058 40 35.0853 40H4.8764C3.95593 40 3.20974 39.2538 3.20974 38.3333V1.70565C3.20974 0.785175 3.95593 0.0389853 4.8764 0.0389853H35.0853C36.0058 0.0389853 36.752 0.785175 36.752 1.70565V38.3333ZM35.0853 39.7674C35.8773 39.7674 36.5194 39.1254 36.5194 38.3333V1.70565C36.5194 0.913613 35.8773 0.271543 35.0853 0.271543H4.8764C4.08436 0.271543 3.44229 0.913613 3.44229 1.70565V38.3333C3.44229 39.1254 4.08436 39.7674 4.8764 39.7674H35.0853Z" fill="black"/>
<path d="M36.6357 38.3334C36.6357 39.1897 35.9416 39.8838 35.0854 39.8838H4.87646C4.02021 39.8838 3.32608 39.1897 3.32608 38.3334V35.5073H36.6357V38.3334Z" fill="#2951A3"/>
<path fill-rule="evenodd" clip-rule="evenodd" d="M36.752 38.3333C36.752 39.2538 36.0058 40 35.0853 40H4.8764C3.95593 40 3.20974 39.2538 3.20974 38.3333V35.391H36.752V38.3333ZM35.0853 39.7674C35.8773 39.7674 36.5194 39.1254 36.5194 38.3333V35.6235H3.44229V38.3333C3.44229 39.1254 4.08436 39.7674 4.8764 39.7674H35.0853Z" fill="black"/>
<path d="M5.85547 26.5595C5.85547 26.1566 6.18204 25.8301 6.58488 25.8301H19.3252C19.7281 25.8301 20.0546 26.1566 20.0546 26.5595V26.5595C20.0546 26.9623 19.7281 27.2889 19.3252 27.2889H6.58488C6.18204 27.2889 5.85547 26.9623 5.85547 26.5595V26.5595Z" fill="#5982D5"/>
<path fill-rule="evenodd" clip-rule="evenodd" d="M6.58404 25.5977H19.3244C19.8557 25.5977 20.2863 26.0283 20.2863 26.5596C20.2863 27.0909 19.8557 27.5216 19.3244 27.5216H6.58404C6.05276 27.5216 5.62207 27.0909 5.62207 26.5596C5.62207 26.0283 6.05276 25.5977 6.58404 25.5977ZM6.58404 25.8302C6.18119 25.8302 5.85463 26.1568 5.85463 26.5596C5.85463 26.9625 6.18119 27.289 6.58404 27.289H19.3244C19.7272 27.289 20.0538 26.9625 20.0538 26.5596C20.0538 26.1568 19.7272 25.8302 19.3244 25.8302H6.58404Z" fill="black"/>
<path d="M5.85547 31.3983C5.85547 30.982 6.19292 30.6445 6.60919 30.6445H19.3009C19.7172 30.6445 20.0546 30.982 20.0546 31.3983V31.3983C20.0546 31.8145 19.7172 32.152 19.3009 32.152H6.60919C6.19292 32.152 5.85547 31.8145 5.85547 31.3983V31.3983Z" fill="#5982D5"/>
<path fill-rule="evenodd" clip-rule="evenodd" d="M6.60835 30.4121H19.3001C19.8448 30.4121 20.2863 30.8537 20.2863 31.3984C20.2863 31.9431 19.8448 32.3847 19.3001 32.3847H6.60835C6.06364 32.3847 5.62207 31.9431 5.62207 31.3984C5.62207 30.8537 6.06364 30.4121 6.60835 30.4121ZM6.60835 30.6447C6.19208 30.6447 5.85463 30.9821 5.85463 31.3984C5.85463 31.8147 6.19208 32.1521 6.60835 32.1521H19.3001C19.7163 32.1521 20.0538 31.8147 20.0538 31.3984C20.0538 30.9821 19.7163 30.6447 19.3001 30.6447H6.60835Z" fill="black"/>
<path d="M5.85547 21.6972C5.85547 21.2943 6.18204 20.9678 6.58488 20.9678H32.4059C32.8088 20.9678 33.1354 21.2943 33.1354 21.6972V21.6972C33.1354 22.1 32.8088 22.4266 32.4059 22.4266H6.58488C6.18204 22.4266 5.85547 22.1 5.85547 21.6972V21.6972Z" fill="#5982D5"/>
<path fill-rule="evenodd" clip-rule="evenodd" d="M6.58404 20.7354H32.4051C32.9364 20.7354 33.3671 21.166 33.3671 21.6973C33.3671 22.2286 32.9364 22.6593 32.4051 22.6593H6.58404C6.05276 22.6593 5.62207 22.2286 5.62207 21.6973C5.62207 21.166 6.05276 20.7354 6.58404 20.7354ZM6.58404 20.9679C6.18119 20.9679 5.85463 21.2945 5.85463 21.6973C5.85463 22.1002 6.18119 22.4267 6.58404 22.4267H32.4051C32.8079 22.4267 33.1345 22.1002 33.1345 21.6973C33.1345 21.2945 32.8079 20.9679 32.4051 20.9679H6.58404Z" fill="black"/>
<path d="M26.7079 16.3476C26.7079 16.9846 26.1916 17.5009 25.5547 17.5009C24.9177 17.5009 24.4014 16.9846 24.4014 16.3476C24.4014 15.7107 24.9177 15.1943 25.5547 15.1943C26.1916 15.1943 26.7079 15.7107 26.7079 16.3476Z" fill="#F7D279"/>
<path fill-rule="evenodd" clip-rule="evenodd" d="M25.5547 17.2683C26.0632 17.2683 26.4754 16.8561 26.4754 16.3476C26.4754 15.8391 26.0632 15.4269 25.5547 15.4269C25.0461 15.4269 24.6339 15.8391 24.6339 16.3476C24.6339 16.8561 25.0461 17.2683 25.5547 17.2683ZM25.5547 17.5009C26.1916 17.5009 26.7079 16.9846 26.7079 16.3476C26.7079 15.7107 26.1916 15.1943 25.5547 15.1943C24.9177 15.1943 24.4014 15.7107 24.4014 16.3476C24.4014 16.9846 24.9177 17.5009 25.5547 17.5009Z" fill="black"/>
<path d="M30.2275 16.3476C30.2275 16.9846 29.7111 17.5009 29.0742 17.5009C28.4372 17.5009 27.9209 16.9846 27.9209 16.3476C27.9209 15.7107 28.4372 15.1943 29.0742 15.1943C29.7111 15.1943 30.2275 15.7107 30.2275 16.3476Z" fill="#F7D279"/>
<path fill-rule="evenodd" clip-rule="evenodd" d="M29.0742 17.2683C29.5827 17.2683 29.9949 16.8561 29.9949 16.3476C29.9949 15.8391 29.5827 15.4269 29.0742 15.4269C28.5657 15.4269 28.1535 15.8391 28.1535 16.3476C28.1535 16.8561 28.5657 17.2683 29.0742 17.2683ZM29.0742 17.5009C29.7111 17.5009 30.2275 16.9846 30.2275 16.3476C30.2275 15.7107 29.7111 15.1943 29.0742 15.1943C28.4372 15.1943 27.9209 15.7107 27.9209 16.3476C27.9209 16.9846 28.4372 17.5009 29.0742 17.5009Z" fill="black"/>
<path d="M33.8004 16.3476C33.8004 16.9846 33.2723 17.5009 32.6209 17.5009C31.9695 17.5009 31.4414 16.9846 31.4414 16.3476C31.4414 15.7107 31.9695 15.1943 32.6209 15.1943C33.2723 15.1943 33.8004 15.7107 33.8004 16.3476Z" fill="#F7D279"/>
<path fill-rule="evenodd" clip-rule="evenodd" d="M32.6209 17.2683C33.1488 17.2683 33.5678 16.8512 33.5678 16.3476C33.5678 15.844 33.1488 15.4269 32.6209 15.4269C32.093 15.4269 31.674 15.844 31.674 16.3476C31.674 16.8512 32.093 17.2683 32.6209 17.2683ZM32.6209 17.5009C33.2723 17.5009 33.8004 16.9846 33.8004 16.3476C33.8004 15.7107 33.2723 15.1943 32.6209 15.1943C31.9695 15.1943 31.4414 15.7107 31.4414 16.3476C31.4414 16.9846 31.9695 17.5009 32.6209 17.5009Z" fill="black"/>
<path d="M28.1904 25.5335C28.523 25.1776 29.0877 25.1776 29.4203 25.5335L30.1774 26.3435C30.3751 26.5551 30.6679 26.6501 30.9523 26.5951L32.0415 26.3842C32.5199 26.2916 32.9768 26.6232 33.0365 27.1064L33.1723 28.2062C33.2078 28.4935 33.3887 28.7423 33.6513 28.8648L34.6564 29.3337C35.098 29.5397 35.2725 30.0762 35.0365 30.5021L34.4992 31.4717C34.3589 31.7249 34.3589 32.0325 34.4992 32.2857L35.0365 33.2553C35.2725 33.6812 35.098 34.2177 34.6564 34.4237L33.6513 34.8926C33.3887 35.0151 33.2078 35.2639 33.1723 35.5512L33.0365 36.651C32.9768 37.1342 32.5199 37.4658 32.0415 37.3732L30.9523 37.1623C30.6679 37.1073 30.3751 37.2023 30.1774 37.4139L29.4203 38.2239C29.0877 38.5798 28.523 38.5798 28.1904 38.2239L27.4333 37.4139C27.2356 37.2023 26.9428 37.1073 26.6584 37.1623L25.5692 37.3732C25.0908 37.4658 24.6339 37.1342 24.5742 36.651L24.4384 35.5512C24.4029 35.2639 24.222 35.0151 23.9594 34.8926L22.9543 34.4237C22.5127 34.2177 22.3382 33.6812 22.5742 33.2553L23.1115 32.2857C23.2518 32.0325 23.2518 31.7249 23.1115 31.4717L22.5742 30.5021C22.3382 30.0762 22.5127 29.5397 22.9543 29.3337L23.9594 28.8648C24.222 28.7423 24.4029 28.4935 24.4384 28.2062L24.5742 27.1064C24.6339 26.6232 25.0908 26.2916 25.5692 26.3842L26.6584 26.5951C26.9428 26.6501 27.2356 26.5551 27.4333 26.3435L28.1904 25.5335Z" fill="#F7D279"/>
<path fill-rule="evenodd" clip-rule="evenodd" d="M30.0075 26.5023L29.2504 25.6923C29.0097 25.4348 28.601 25.4348 28.3603 25.6923L27.6032 26.5023C27.3508 26.7724 26.9771 26.8937 26.6142 26.8234L25.525 26.6126C25.1786 26.5455 24.8482 26.7856 24.805 27.1349L24.6692 28.2347C24.6239 28.6016 24.3928 28.9192 24.0578 29.0755L23.0526 29.5445C22.733 29.6935 22.607 30.0815 22.7776 30.3894L23.3149 31.359C23.4941 31.6823 23.4941 32.0751 23.3149 32.3984L22.7776 33.368C22.607 33.6759 22.733 34.0639 23.0526 34.213L24.0578 34.6819C24.3928 34.8382 24.6239 35.1558 24.6692 35.5227L24.805 36.6225C24.8482 36.9718 25.1786 37.2119 25.525 37.1448L26.6142 36.934C26.9771 36.8638 27.3508 36.985 27.6032 37.2551L28.3603 38.0651C28.601 38.3226 29.0097 38.3226 29.2504 38.0651L30.0075 37.2551C30.2599 36.985 30.6336 36.8638 30.9965 36.934L32.0857 37.1448C32.4321 37.2119 32.7625 36.9718 32.8057 36.6225L32.9415 35.5227C32.9868 35.1558 33.2179 34.8382 33.5529 34.6819L34.5581 34.213C34.8777 34.0639 35.0037 33.6759 34.8331 33.368L34.2958 32.3984C34.1166 32.0751 34.1166 31.6823 34.2958 31.359L34.8331 30.3894C35.0037 30.0815 34.8777 29.6935 34.5581 29.5445L33.5529 29.0755C33.2179 28.9192 32.9868 28.6016 32.9415 28.2347L32.8057 27.1349C32.7625 26.7856 32.4321 26.5455 32.0857 26.6126L30.9965 26.8234C30.6336 26.8937 30.2599 26.7724 30.0075 26.5023ZM29.4203 25.5335C29.0877 25.1776 28.523 25.1776 28.1904 25.5335L27.4333 26.3435C27.2356 26.5551 26.9428 26.6501 26.6584 26.5951L25.5692 26.3842C25.0908 26.2916 24.6339 26.6232 24.5742 27.1064L24.4384 28.2062C24.4029 28.4935 24.222 28.7423 23.9594 28.8648L22.9543 29.3337C22.5127 29.5397 22.3382 30.0762 22.5742 30.5021L23.1115 31.4717C23.2518 31.7249 23.2518 32.0325 23.1115 32.2857L22.5742 33.2553C22.3382 33.6812 22.5127 34.2177 22.9543 34.4237L23.9594 34.8926C24.222 35.0151 24.4029 35.2639 24.4384 35.5512L24.5742 36.651C24.6339 37.1342 25.0908 37.4658 25.5692 37.3732L26.6584 37.1623C26.9428 37.1073 27.2356 37.2023 27.4333 37.4139L28.1904 38.2239C28.523 38.5798 29.0877 38.5798 29.4203 38.2239L30.1774 37.4139C30.3751 37.2023 30.6679 37.1073 30.9523 37.1623L32.0415 37.3732C32.5199 37.4658 32.9768 37.1342 33.0365 36.651L33.1723 35.5512C33.2078 35.2639 33.3887 35.0151 33.6513 34.8926L34.6564 34.4237C35.098 34.2177 35.2725 33.6812 35.0365 33.2553L34.4992 32.2857C34.3589 32.0325 34.3589 31.7249 34.4992 31.4717L35.0365 30.5021C35.2725 30.0762 35.098 29.5397 34.6564 29.3337L33.6513 28.8648C33.3887 28.7423 33.2078 28.4935 33.1723 28.2062L33.0365 27.1064C32.9768 26.6232 32.5199 26.2916 32.0415 26.3842L30.9523 26.5951C30.6679 26.6501 30.3751 26.5551 30.1774 26.3435L29.4203 25.5335Z" fill="black"/>
<path fill-rule="evenodd" clip-rule="evenodd" d="M32.3714 29.572C32.6474 29.8245 32.6635 30.2498 32.4074 30.5219L28.8036 34.3498C28.3256 34.8576 27.5154 34.8725 27.0185 34.3826L25.0727 32.4645C24.8065 32.202 24.8065 31.7765 25.0727 31.514C25.339 31.2516 25.7706 31.2516 26.0369 31.514L27.8917 33.3425L31.4079 29.6075C31.6641 29.3354 32.0954 29.3195 32.3714 29.572Z" fill="white"/>
<path fill-rule="evenodd" clip-rule="evenodd" d="M31.2387 29.4482C31.5822 29.0834 32.1589 29.0624 32.5285 29.4006C32.9001 29.7405 32.9221 30.3147 32.5768 30.6814L28.9731 34.5094C28.4055 35.1123 27.4451 35.1298 26.8554 34.5484L24.9096 32.6303C24.551 32.2767 24.551 31.7021 24.9096 31.3486C25.2664 30.9968 25.8435 30.9968 26.2003 31.3486L27.8856 33.0099L31.2387 29.4482ZM27.8918 33.3426L26.037 31.5142C25.7708 31.2517 25.3391 31.2517 25.0729 31.5142C24.8066 31.7766 24.8066 32.2022 25.0729 32.4646L27.0186 34.3828C27.5155 34.8726 28.3257 34.8577 28.8037 34.35L32.4075 30.522C32.6636 30.2499 32.6475 29.8247 32.3715 29.5722C32.0956 29.3197 31.6642 29.3355 31.4081 29.6076L27.8918 33.3426Z" fill="black"/>
<path d="M8.88265 7.4873C9.38379 7.4873 9.79004 7.89356 9.79004 8.3947L9.79004 13.3853C9.79004 13.8865 9.38379 14.2927 8.88265 14.2927V14.2927C8.38151 14.2927 7.97526 13.8865 7.97526 13.3853L7.97526 8.39469C7.97526 7.89356 8.38151 7.4873 8.88265 7.4873V7.4873Z" fill="#2951A3"/>
<path fill-rule="evenodd" clip-rule="evenodd" d="M9.55748 13.3853L9.55748 8.3947C9.55748 8.022 9.25535 7.71986 8.88265 7.71986C8.50995 7.71986 8.20781 8.02199 8.20781 8.39469L8.20781 13.3853C8.20781 13.758 8.50995 14.0602 8.88265 14.0602C9.25535 14.0602 9.55748 13.758 9.55748 13.3853ZM9.79004 8.3947C9.79004 7.89356 9.38379 7.4873 8.88265 7.4873C8.38151 7.4873 7.97526 7.89356 7.97526 8.39469L7.97526 13.3853C7.97526 13.8865 8.38151 14.2927 8.88265 14.2927C9.38379 14.2927 9.79004 13.8865 9.79004 13.3853L9.79004 8.3947Z" fill="black"/>
<path d="M14.327 7.4873C14.8281 7.4873 15.2344 7.89356 15.2344 8.3947L15.2344 13.3853C15.2344 13.8865 14.8281 14.2927 14.327 14.2927V14.2927C13.8258 14.2927 13.4196 13.8865 13.4196 13.3853L13.4196 8.39469C13.4196 7.89356 13.8258 7.4873 14.327 7.4873V7.4873Z" fill="#2951A3"/>
<path fill-rule="evenodd" clip-rule="evenodd" d="M15.0018 13.3853L15.0018 8.3947C15.0018 8.022 14.6997 7.71986 14.327 7.71986C13.9543 7.71986 13.6521 8.02199 13.6521 8.39469L13.6521 13.3853C13.6521 13.758 13.9543 14.0602 14.327 14.0602C14.6997 14.0602 15.0018 13.758 15.0018 13.3853ZM15.2344 8.3947C15.2344 7.89356 14.8281 7.4873 14.327 7.4873C13.8258 7.4873 13.4196 7.89356 13.4196 8.39469L13.4196 13.3853C13.4196 13.8865 13.8258 14.2927 14.327 14.2927C14.8281 14.2927 15.2344 13.8865 15.2344 13.3853L15.2344 8.3947Z" fill="black"/>
<path d="M10.499 8.39437C10.499 8.8955 10.0928 9.30176 9.59163 9.30176L8.17383 9.30176C7.6727 9.30176 7.26644 8.8955 7.26644 8.39437V8.39437C7.26644 7.89323 7.6727 7.48698 8.17383 7.48698L9.59163 7.48698C10.0928 7.48698 10.499 7.89323 10.499 8.39437V8.39437Z" fill="white"/>
<path fill-rule="evenodd" clip-rule="evenodd" d="M8.17383 9.0692L9.59163 9.0692C9.96433 9.0692 10.2665 8.76707 10.2665 8.39437C10.2665 8.02167 9.96433 7.71953 9.59163 7.71953L8.17383 7.71953C7.80113 7.71953 7.499 8.02167 7.499 8.39437C7.499 8.76707 7.80113 9.0692 8.17383 9.0692ZM9.59163 9.30176C10.0928 9.30176 10.499 8.8955 10.499 8.39437C10.499 7.89323 10.0928 7.48698 9.59163 7.48698L8.17383 7.48698C7.6727 7.48698 7.26644 7.89323 7.26644 8.39437C7.26644 8.8955 7.6727 9.30176 8.17383 9.30176L9.59163 9.30176Z" fill="black"/>
<path d="M15.9434 8.39437C15.9434 8.8955 15.5371 9.30176 15.036 9.30176L13.6182 9.30176C13.117 9.30176 12.7108 8.8955 12.7108 8.39437V8.39437C12.7108 7.89323 13.117 7.48698 13.6182 7.48698L15.036 7.48698C15.5371 7.48698 15.9434 7.89323 15.9434 8.39437V8.39437Z" fill="white"/>
<path fill-rule="evenodd" clip-rule="evenodd" d="M13.6182 9.0692L15.036 9.0692C15.4087 9.0692 15.7108 8.76707 15.7108 8.39437C15.7108 8.02167 15.4087 7.71953 15.036 7.71953L13.6182 7.71953C13.2455 7.71953 12.9433 8.02167 12.9433 8.39437C12.9433 8.76707 13.2455 9.0692 13.6182 9.0692ZM15.036 9.30176C15.5371 9.30176 15.9434 8.8955 15.9434 8.39437C15.9434 7.89323 15.5371 7.48698 15.036 7.48698L13.6182 7.48698C13.117 7.48698 12.7108 7.89323 12.7108 8.39437C12.7108 8.8955 13.117 9.30176 13.6182 9.30176L15.036 9.30176Z" fill="black"/>
<path d="M10.499 11.7977C10.499 12.2988 10.0928 12.7051 9.59163 12.7051L8.17383 12.7051C7.6727 12.7051 7.26644 12.2988 7.26644 11.7977V11.7977C7.26644 11.2965 7.6727 10.8903 8.17383 10.8903L9.59163 10.8903C10.0928 10.8903 10.499 11.2965 10.499 11.7977V11.7977Z" fill="white"/>
<path fill-rule="evenodd" clip-rule="evenodd" d="M8.17383 12.4725L9.59163 12.4725C9.96433 12.4725 10.2665 12.1704 10.2665 11.7977C10.2665 11.425 9.96433 11.1229 9.59163 11.1229L8.17383 11.1229C7.80113 11.1229 7.499 11.425 7.499 11.7977C7.499 12.1704 7.80113 12.4725 8.17383 12.4725ZM9.59163 12.7051C10.0928 12.7051 10.499 12.2988 10.499 11.7977C10.499 11.2965 10.0928 10.8903 9.59163 10.8903L8.17383 10.8903C7.6727 10.8903 7.26644 11.2965 7.26644 11.7977C7.26644 12.2988 7.6727 12.7051 8.17383 12.7051L9.59163 12.7051Z" fill="black"/>
<path d="M15.9434 11.7977C15.9434 12.2988 15.5371 12.7051 15.036 12.7051L13.6182 12.7051C13.117 12.7051 12.7108 12.2988 12.7108 11.7977V11.7977C12.7108 11.2965 13.117 10.8903 13.6182 10.8903L15.036 10.8903C15.5371 10.8903 15.9434 11.2965 15.9434 11.7977V11.7977Z" fill="white"/>
<path fill-rule="evenodd" clip-rule="evenodd" d="M13.6182 12.4725L15.036 12.4725C15.4087 12.4725 15.7108 12.1704 15.7108 11.7977C15.7108 11.425 15.4087 11.1229 15.036 11.1229L13.6182 11.1229C13.2455 11.1229 12.9433 11.425 12.9433 11.7977C12.9433 12.1704 13.2455 12.4725 13.6182 12.4725ZM15.036 12.7051C15.5371 12.7051 15.9434 12.2988 15.9434 11.7977C15.9434 11.2965 15.5371 10.8903 15.036 10.8903L13.6182 10.8903C13.117 10.8903 12.7108 11.2965 12.7108 11.7977C12.7108 12.2988 13.117 12.7051 13.6182 12.7051L15.036 12.7051Z" fill="black"/>
<path d="M19.7713 7.4873C20.2725 7.4873 20.6787 7.89356 20.6787 8.3947L20.6787 13.3853C20.6787 13.8865 20.2725 14.2927 19.7713 14.2927V14.2927C19.2702 14.2927 18.8639 13.8865 18.8639 13.3853L18.8639 8.39469C18.8639 7.89356 19.2702 7.4873 19.7713 7.4873V7.4873Z" fill="#2951A3"/>
<path fill-rule="evenodd" clip-rule="evenodd" d="M20.4462 13.3853L20.4462 8.3947C20.4462 8.022 20.144 7.71986 19.7713 7.71986C19.3986 7.71986 19.0965 8.02199 19.0965 8.39469L19.0965 13.3853C19.0965 13.758 19.3986 14.0602 19.7713 14.0602C20.144 14.0602 20.4462 13.758 20.4462 13.3853ZM20.6787 8.3947C20.6787 7.89356 20.2725 7.4873 19.7713 7.4873C19.2702 7.4873 18.8639 7.89356 18.8639 8.39469L18.8639 13.3853C18.8639 13.8865 19.2702 14.2927 19.7713 14.2927C20.2725 14.2927 20.6787 13.8865 20.6787 13.3853L20.6787 8.3947Z" fill="black"/>
<path d="M21.3877 11.7977C21.3877 12.2988 20.9814 12.7051 20.4803 12.7051L19.0625 12.7051C18.5614 12.7051 18.1551 12.2988 18.1551 11.7977V11.7977C18.1551 11.2965 18.5614 10.8903 19.0625 10.8903L20.4803 10.8903C20.9814 10.8903 21.3877 11.2965 21.3877 11.7977V11.7977Z" fill="white"/>
<path fill-rule="evenodd" clip-rule="evenodd" d="M19.0625 12.4725L20.4803 12.4725C20.853 12.4725 21.1551 12.1704 21.1551 11.7977C21.1551 11.425 20.853 11.1229 20.4803 11.1229L19.0625 11.1229C18.6898 11.1229 18.3877 11.425 18.3877 11.7977C18.3877 12.1704 18.6898 12.4725 19.0625 12.4725ZM20.4803 12.7051C20.9814 12.7051 21.3877 12.2988 21.3877 11.7977C21.3877 11.2965 20.9814 10.8903 20.4803 10.8903L19.0625 10.8903C18.5614 10.8903 18.1551 11.2965 18.1551 11.7977C18.1551 12.2988 18.5614 12.7051 19.0625 12.7051L20.4803 12.7051Z" fill="black"/>
<path d="M21.3594 8.39437C21.3594 8.8955 20.9531 9.30176 20.452 9.30176L19.0342 9.30176C18.533 9.30176 18.1268 8.8955 18.1268 8.39437V8.39437C18.1268 7.89323 18.533 7.48698 19.0342 7.48698L20.452 7.48698C20.9531 7.48698 21.3594 7.89323 21.3594 8.39437V8.39437Z" fill="white"/>
<path fill-rule="evenodd" clip-rule="evenodd" d="M19.0342 9.0692L20.452 9.0692C20.8247 9.0692 21.1268 8.76707 21.1268 8.39437C21.1268 8.02167 20.8247 7.71953 20.452 7.71953L19.0342 7.71953C18.6615 7.71953 18.3594 8.02167 18.3594 8.39437C18.3594 8.76707 18.6615 9.0692 19.0342 9.0692ZM20.452 9.30176C20.9531 9.30176 21.3594 8.8955 21.3594 8.39437C21.3594 7.89323 20.9531 7.48698 20.452 7.48698L19.0342 7.48698C18.533 7.48698 18.1268 7.89323 18.1268 8.39437C18.1268 8.8955 18.533 9.30176 19.0342 9.30176L20.452 9.30176Z" fill="black"/>
<path d="M6.58594 13.2057C6.58594 12.3494 7.28007 11.6553 8.13632 11.6553H20.603C21.4592 11.6553 22.1534 12.3494 22.1534 13.2057V15.6343C22.1534 16.4906 21.4592 17.1847 20.603 17.1847H8.13632C7.28007 17.1847 6.58594 16.4906 6.58594 15.6343V13.2057Z" fill="#2951A3"/>
<path fill-rule="evenodd" clip-rule="evenodd" d="M20.603 11.8878H8.13632C7.4085 11.8878 6.81849 12.4778 6.81849 13.2057V15.6343C6.81849 16.3621 7.4085 16.9521 8.13632 16.9521H20.603C21.3308 16.9521 21.9208 16.3621 21.9208 15.6343V13.2057C21.9208 12.4778 21.3308 11.8878 20.603 11.8878ZM8.13632 11.6553C7.28007 11.6553 6.58594 12.3494 6.58594 13.2057V15.6343C6.58594 16.4906 7.28007 17.1847 8.13632 17.1847H20.603C21.4592 17.1847 22.1534 16.4906 22.1534 15.6343V13.2057C22.1534 12.3494 21.4592 11.6553 20.603 11.6553H8.13632Z" fill="black"/>
<path d="M5.87695 15.8391C5.87695 15.0952 6.47998 14.4922 7.22386 14.4922H21.5153C22.2591 14.4922 22.8622 15.0952 22.8622 15.8391V15.8391C22.8622 16.583 22.2591 17.186 21.5153 17.186H7.22386C6.47998 17.186 5.87695 16.583 5.87695 15.8391V15.8391Z" fill="#2951A3"/>
<path fill-rule="evenodd" clip-rule="evenodd" d="M21.5153 14.7247H7.22386C6.60842 14.7247 6.10951 15.2237 6.10951 15.8391C6.10951 16.4545 6.60842 16.9534 7.22386 16.9534H21.5153C22.1307 16.9534 22.6296 16.4545 22.6296 15.8391C22.6296 15.2237 22.1307 14.7247 21.5153 14.7247ZM7.22386 14.4922C6.47998 14.4922 5.87695 15.0952 5.87695 15.8391C5.87695 16.583 6.47998 17.186 7.22386 17.186H21.5153C22.2592 17.186 22.8622 16.583 22.8622 15.8391C22.8622 15.0952 22.2592 14.4922 21.5153 14.4922H7.22386Z" fill="black"/>
<path d="M6.84082 6.13635C6.84082 5.74022 7.09169 5.38754 7.4659 5.25759L14.0075 2.98604C14.2051 2.91741 14.4201 2.91741 14.6178 2.98604L21.1593 5.25759C21.5335 5.38754 21.7844 5.74022 21.7844 6.13635V7.38002C21.7844 7.89377 21.3679 8.31025 20.8542 8.31025H7.77105C7.2573 8.31025 6.84082 7.89377 6.84082 7.38002V6.13635Z" fill="#2951A3"/>
<path fill-rule="evenodd" clip-rule="evenodd" d="M14.5797 3.09596C14.4068 3.0359 14.2186 3.0359 14.0457 3.09596L7.50411 5.36751C7.17668 5.48121 6.95717 5.7898 6.95717 6.13642V7.38009C6.95717 7.82962 7.32159 8.19404 7.77112 8.19404H20.8543C21.3038 8.19404 21.6682 7.82962 21.6682 7.38009V6.13642C21.6682 5.7898 21.4487 5.48121 21.1213 5.36751L14.5797 3.09596ZM13.9694 2.87627C14.1917 2.79906 14.4336 2.79906 14.656 2.87627L21.1975 5.14782C21.6185 5.29401 21.9008 5.69077 21.9008 6.13642V7.38009C21.9008 7.95806 21.4322 8.4266 20.8543 8.4266H7.77112C7.19315 8.4266 6.72461 7.95806 6.72461 7.38009V6.13642C6.72461 5.69077 7.00684 5.29401 7.42783 5.14782L13.9694 2.87627Z" fill="black"/>
<path d="M15.915 5.71579C15.915 6.56146 15.2294 7.24702 14.3838 7.24702C13.5381 7.24702 12.8525 6.56146 12.8525 5.71579C12.8525 4.87012 13.5381 4.18457 14.3838 4.18457C15.2294 4.18457 15.915 4.87012 15.915 5.71579Z" fill="#F7D279"/>
<path fill-rule="evenodd" clip-rule="evenodd" d="M14.3838 7.01446C15.101 7.01446 15.6824 6.43303 15.6824 5.71579C15.6824 4.99856 15.101 4.41713 14.3838 4.41713C13.6665 4.41713 13.0851 4.99856 13.0851 5.71579C13.0851 6.43303 13.6665 7.01446 14.3838 7.01446ZM14.3838 7.24702C15.2294 7.24702 15.915 6.56146 15.915 5.71579C15.915 4.87012 15.2294 4.18457 14.3838 4.18457C13.5381 4.18457 12.8525 4.87012 12.8525 5.71579C12.8525 6.56146 13.5381 7.24702 14.3838 7.24702Z" fill="black"/>
<path d="M29.2715 4.62246C29.1492 4.50215 28.9519 4.50215 28.8297 4.62246L25.5455 7.85422C25.3468 8.04979 25.4864 8.38599 25.7664 8.38599H27.5335V11.8071C27.5335 11.9788 27.6739 12.1181 27.8471 12.1181H30.254C30.4272 12.1181 30.5676 11.9788 30.5676 11.8071V8.38599H32.3347C32.6147 8.38599 32.7544 8.04979 32.5556 7.85422L29.2715 4.62246Z" fill="#5982D5"/>
<path fill-rule="evenodd" clip-rule="evenodd" d="M27.7661 8.15344V11.8071C27.7661 11.8486 27.8005 11.8855 27.8471 11.8855H30.254C30.3006 11.8855 30.3351 11.8486 30.3351 11.8071V8.15344H32.3347C32.4107 8.15344 32.44 8.06672 32.3925 8.01998L29.1083 4.78822C29.0766 4.75697 29.0246 4.75697 28.9928 4.78823L25.7086 8.01998C25.6611 8.06672 25.6904 8.15344 25.7664 8.15344H27.7661ZM28.8297 4.62246C28.9519 4.50215 29.1492 4.50215 29.2715 4.62246L32.5556 7.85422C32.7544 8.04979 32.6147 8.38599 32.3347 8.38599H30.5676V11.8071C30.5676 11.9788 30.4272 12.1181 30.254 12.1181H27.8471C27.6739 12.1181 27.5335 11.9788 27.5335 11.8071V8.38599H25.7664C25.4864 8.38599 25.3468 8.04979 25.5455 7.85422L28.8297 4.62246Z" fill="black"/>
</g>
<defs>
<clipPath id="clip0_1739_220784">
<rect width="40" height="40" fill="white"/>
</clipPath>
</defs>
</svg>
